#!OML:ASF E:\Style6\Style6.ASF
:FULLY-SPECIFIED
:DEGREES
3633
root 0.650207 18.1564 1.17028 3.92931 -5.63958 -4.11395
lowerback -5.70741 0.194259 3.31753
upperback 3.07913 -0.143819 2.0191
thorax 6.41954 0.0226769 0.229961
lowerneck -0.916112 0.890651 6.14933
upperneck 0.503082 1.16442 -6.6335
head 0.402528 0.567009 -3.20279
rclavicle -1.5704e-014 -1.41137e-014
rhumerus -20.08 12.9071 -88.9739
rradius 133.019
rwrist 45.1048
rhand 17.8128 -5.32869
rfingers 7.12502
rthumb 42.4923 -29.7516
lclavicle -1.5704e-014 -1.41137e-014
lhumerus -13.6183 -15.1321 87.0328
lradius 127.252
lwrist -31.2634
lhand 10.1558 35.7125
lfingers 7.12502
lthumb 35.2741 62.2041
rfemur -7.52094 7.48599 22.0901
rtibia 16.5771
rfoot -6.89964 -13.5608
rtoes -5.60573
lfemur -5.09378 -13.7104 -16.681
ltibia 21.4416
lfoot -11.8693 21.3161
ltoes -11.6496
3634
root 0.640032 18.1575 1.15867 4.26923 -5.48215 -4.12835
lowerback -5.61801 0.207338 3.26162
upperback 2.7467 -0.105091 2.02711
thorax 6.01709 0.0327588 0.270177
lowerneck -0.987125 1.23784 6.4626
upperneck 0.708986 1.63267 -6.93396
head 0.520674 0.799324 -3.36229
rclavicle 1.00386e-014 2.3059e-014
rhumerus -19.6977 12.7875 -88.4499
rradius 133.168
rwrist 44.8965
rhand 17.6892 -5.30678
rfingers 7.12502
rthumb 42.3766 -29.7694
lclavicle 1.00386e-014 2.3059e-014
lhumerus -13.1126 -15.0353 86.6062
lradius 126.992
lwrist -31.1543
lhand 10.0173 35.5482
lfingers 7.12502
lthumb 35.1428 62.0708
rfemur -8.02978 7.15462 22.0686
rtibia 16.7286
rfoot -6.81573 -13.2945
rtoes -5.59239
lfemur -5.68575 -13.5625 -16.469
ltibia 21.6444
lfoot -11.7588 21.0729
ltoes -12.295
3635
root 0.631267 18.1573 1.14498 4.58978 -5.33059 -4.22401
lowerback -5.47106 0.245776 3.33306
upperback 2.41596 -0.0402879 2.03975
thorax 5.58594 0.0603236 0.246254
lowerneck -1.07501 1.58528 6.8723
upperneck 0.926128 2.10137 -7.33154
head 0.652404 1.03134 -3.57431
rclavicle -7.23079e-015 -6.75868e-015
rhumerus -19.2208 12.617 -87.9057
rradius 133.204
rwrist 44.7434
rhand 17.3034 -5.13322
rfingers 7.12502
rthumb 42.0153 -29.7182
lclavicle -7.23079e-015 -6.75868e-015
lhumerus -12.5891 -15.0351 86.1474
lradius 126.816
lwrist -31.1947
lhand 10.2244 35.5017
lfingers 7.12502
lthumb 35.3392 61.9779
rfemur -8.4977 6.86166 22.1417
rtibia 16.8554
rfoot -6.51963 -13.049
rtoes -6.80254
lfemur -6.25184 -13.4302 -16.1736
ltibia 21.8498
lfoot -11.802 20.7773
ltoes -12.1378
3636
root 0.623379 18.1582 1.1319 4.89118 -5.11449 -4.28211
lowerback -5.31315 0.264861 3.41602
upperback 2.06842 0.00157119 2.01148
thorax 5.13215 0.0768732 0.17056
lowerneck -1.17771 1.84255 7.01049
upperneck 1.18057 2.45062 -7.44002
head 0.784264 1.20395 -3.6335
rclavicle -6.38596e-015 1.98785e-014
rhumerus -18.7396 12.4235 -87.4184
rradius 133.183
rwrist 44.5125
rhand 17.0296 -4.98885
rfingers 7.12502
rthumb 41.7585 -29.6593
lclavicle -6.38596e-015 1.98785e-014
lhumerus -12.1059 -15.0737 85.6544
lradius 126.651
lwrist -31.1548
lhand 10.3472 35.4523
lfingers 7.12502
lthumb 35.4556 61.9008
rfemur -8.96434 6.40437 22.1804
rtibia 17.0256
rfoot -6.13689 -12.7009
rtoes -9.23085
lfemur -6.7882 -13.3516 -15.9271
ltibia 22.0148
lfoot -11.7403 20.4769
ltoes -12.2593
3637
root 0.614135 18.1579 1.11919 5.18618 -4.87551 -4.22702
lowerback -5.16067 0.257627 3.34804
upperback 1.7043 0.0203223 1.96707
thorax 4.66479 0.076828 0.160389
lowerneck -1.37976 2.06879 6.78539
upperneck 1.51623 2.75608 -7.18891
head 0.943414 1.35359 -3.49495
rclavicle -4.05024e-015 -5.76476e-015
rhumerus -18.3453 12.2997 -86.9716
rradius 133.208
rwrist 44.2283
rhand 17.0765 -4.97836
rfingers 7.12502
rthumb 41.8025 -29.6342
lclavicle -4.05024e-015 -5.76476e-015
lhumerus -11.6595 -15.0542 85.1794
lradius 126.472
lwrist -31.1325
lhand 10.4455 35.1582
lfingers 7.12502
lthumb 35.5487 61.5843
rfemur -9.44382 5.9886 22.1015
rtibia 17.2207
rfoot -6.14845 -12.3744
rtoes -8.68699
lfemur -7.32021 -13.2884 -15.8033
ltibia 22.1545
lfoot -11.5879 20.2202
ltoes -12.8404
3638
root 0.604302 18.1564 1.10673 5.51567 -4.59961 -4.07868
lowerback -5.14629 0.215451 3.11139
upperback 1.38311 -0.00660692 1.95224
thorax 4.32063 0.0512202 0.272529
lowerneck -1.52105 2.30896 6.63478
upperneck 1.75068 3.0799 -7.04269
head 1.06265 1.51314 -3.40744
rclavicle -4.91992e-015 3.1408e-014
rhumerus -17.9052 12.2631 -86.443
rradius 133.278
rwrist 43.9991
rhand 17.2976 -5.13781
rfingers 7.12502
rthumb 42.0098 -29.7246
lclavicle -4.91992e-015 3.1408e-014
lhumerus -11.1953 -15.0026 84.7778
lradius 126.303
lwrist -31.1767
lhand 10.3229 34.9336
lfingers 7.12502
lthumb 35.4325 61.3876
rfemur -9.98873 5.64088 21.9214
rtibia 17.4719
rfoot -6.29876 -12.1423
rtoes -7.75089
lfemur -7.87354 -13.2567 -15.7697
ltibia 22.2504
lfoot -11.5625 19.9396
ltoes -12.8015
